{
  "accessors": [
    {
      "bufferView": 2,
      "componentType": 5126,
      "count": 20970,
      "max": [
        0.12015331536531448,
        0.09063232690095901,
        0.30679643154144287
      ],
      "min": [
        -0.18764829635620117,
        -0.09034259617328644,
        -0.26535817980766296
      ],
      "type": "VEC3"
    },
    {
      "bufferView": 2,
      "byteOffset": 251640,
      "componentType": 5126,
      "count": 20970,
      "max": [
        0.9999996423721313,
        0.9999986886978149,
        0.9999992847442627
      ],
      "min": [
        -1.0,
        -0.9999947547912598,
        -0.9999977350234985
      ],
      "type": "VEC3"
    },
    {
      "bufferView": 0,
      "componentType": 5125,
      "count": 125808,
      "type": "SCALAR"
    },
    {
      "bufferView": 2,
      "byteOffset": 503280,
      "componentType": 5126,
      "count": 34506,
      "max": [
        0.22345080971717834,
        0.08952564746141434,
        0.2738443911075592
      ],
      "min": [
        -0.2389531433582306,
        -0.08876143395900726,
        -0.3050498068332672
      ],
      "type": "VEC3"
    },
    {
      "bufferView": 2,
      "byteOffset": 917352,
      "componentType": 5126,
      "count": 34506,
      "max": [
        0.9999862909317017,
        0.9999860525131226,
        0.9999998807907104
      ],
      "min": [
        -0.9999959468841553,
        -0.9999915361404419,
        -0.9999830722808838
      ],
      "type": "VEC3"
    },
    {
      "bufferView": 0,
      "byteOffset": 503232,
      "componentType": 5125,
      "count": 207024,
      "type": "SCALAR"
    },
    {
      "bufferView": 2,
      "byteOffset": 1331424,
      "componentType": 5126,
      "count": 34834,
      "max": [
        0.22427582740783691,
        0.08853688091039658,
        0.29514065384864807
      ],
      "min": [
        -0.25025686621665955,
        -0.0886562392115593,
        -0.2867181897163391
      ],
      "type": "VEC3"
    },
    {
      "bufferView": 2,
      "byteOffset": 1749432,
      "componentType": 5126,
      "count": 34834,
      "max": [
        0.999961256980896,
        0.9999986886978149,
        0.9999988079071045
      ],
      "min": [
        -0.9999977350234985,
        -0.9999955892562866,
        -0.9999974966049194
      ],
      "type": "VEC3"
    },
    {
      "bufferView": 0,
      "byteOffset": 1331328,
      "componentType": 5125,
      "count": 208992,
      "type": "SCALAR"
    },
    {
      "bufferView": 2,
      "byteOffset": 2167440,
      "componentType": 5126,
      "count": 30240,
      "max": [
        0.2390574812889099,
        0.09320765733718872,
        0.27214786410331726
      ],
      "min": [
        -0.28984472155570984,
        -0.09297961741685867,
        -0.3017676770687103
      ],
      "type": "VEC3"
    },
    {
      "bufferView": 2,
      "byteOffset": 2530320,
      "componentType": 5126,
      "count": 30240,
      "max": [
        0.9999953508377075,
        0.9999929666519165,
        0.9999998807907104
      ],
      "min": [
        -0.9999879598617554,
        -0.9999803304672241,
        -0.9999910593032837
      ],
      "type": "VEC3"
    },
    {
      "bufferView": 0,
      "byteOffset": 2167296,
      "componentType": 5125,
      "count": 181440,
      "type": "SCALAR"
    },
    {
      "bufferView": 2,
      "byteOffset": 2893200,
      "componentType": 5126,
      "count": 24041,
      "max": [
        0.2284151166677475,
        0.09231433272361755,
        0.29082944989204407
      ],
      "min": [
        -0.24372488260269165,
        -0.09168249368667603,
        -0.2840021550655365
      ],
      "type": "VEC3"
    },
    {
      "bufferView": 2,
      "byteOffset": 3181692,
      "componentType": 5126,
      "count": 24041,
      "max": [
        0.9999755620956421,
        0.9999957084655762,
        0.9999991655349731
      ],
      "min": [
        -0.99991774559021,
        -0.9999980926513672,
        -0.9999979734420776
      ],
      "type": "VEC3"
    },
    {
      "bufferView": 0,
      "byteOffset": 2893056,
      "componentType": 5125,
      "count": 144234,
      "type": "SCALAR"
    },
    {
      "bufferView": 2,
      "byteOffset": 3470184,
      "componentType": 5126,
      "count": 23124,
      "max": [
        0.23189203441143036,
        0.09468209743499756,
        0.2976158559322357
      ],
      "min": [
        -0.2468530237674713,
        -0.09427434206008911,
        -0.2917521297931671
      ],
      "type": "VEC3"
    },
    {
      "bufferView": 2,
      "byteOffset": 3747672,
      "componentType": 5126,
      "count": 23124,
      "max": [
        0.9999287128448486,
        0.9999946355819702,
        0.9999984502792358
      ],
      "min": [
        -0.9999309778213501,
        -0.9999996423721313,
        -0.9999955892562866
      ],
      "type": "VEC3"
    },
    {
      "bufferView": 0,
      "byteOffset": 3469992,
      "componentType": 5125,
      "count": 138756,
      "type": "SCALAR"
    },
    {
      "bufferView": 2,
      "byteOffset": 4025160,
      "componentType": 5126,
      "count": 27802,
      "max": [
        0.23823429644107819,
        0.090707927942276,
        0.3222216069698334
      ],
      "min": [
        -0.2117062211036682,
        -0.09058821201324463,
        -0.24806316196918488
      ],
      "type": "VEC3"
    },
    {
      "bufferView": 2,
      "byteOffset": 4358784,
      "componentType": 5126,
      "count": 27802,
      "max": [
        0.9999855756759644,
        0.9999984502792358,
        0.9999996423721313
      ],
      "min": [
        -0.9999582767486572,
        -0.9999978542327881,
        -0.9999916553497314
      ],
      "type": "VEC3"
    },
    {
      "bufferView": 0,
      "byteOffset": 4025016,
      "componentType": 5125,
      "count": 166800,
      "type": "SCALAR"
    },
    {
      "bufferView": 2,
      "byteOffset": 4692408,
      "componentType": 5126,
      "count": 35194,
      "max": [
        0.2322048395872116,
        0.08537567406892776,
        0.2841155529022217
      ],
      "min": [
        -0.23241691291332245,
        -0.0857015922665596,
        -0.29154834151268005
      ],
      "type": "VEC3"
    },
    {
      "bufferView": 2,
      "byteOffset": 5114736,
      "componentType": 5126,
      "count": 35194,
      "max": [
        0.9999904632568359,
        0.9999964237213135,
        0.9999923706054688
      ],
      "min": [
        -0.9999579191207886,
        -0.9999974966049194,
        -0.9999901056289673
      ],
      "type": "VEC3"
    },
    {
      "bufferView": 0,
      "byteOffset": 4692216,
      "componentType": 5125,
      "count": 211176,
      "type": "SCALAR"
    },
    {
      "bufferView": 2,
      "byteOffset": 5537064,
      "componentType": 5126,
      "count": 23398,
      "max": [
        0.24800696969032288,
        0.09811164438724518,
        0.29220929741859436
      ],
      "min": [
        -0.23202601075172424,
        -0.0991860181093216,
        -0.29839470982551575
      ],
      "type": "VEC3"
    },
    {
      "bufferView": 2,
      "byteOffset": 5817840,
      "componentType": 5126,
      "count": 23398,
      "max": [
        0.9999837875366211,
        0.9999903440475464,
        0.9999603033065796
      ],
      "min": [
        -0.9998916387557983,
        -0.999984622001648,
        -0.9999420642852783
      ],
      "type": "VEC3"
    },
    {
      "bufferView": 0,
      "byteOffset": 5536920,
      "componentType": 5125,
      "count": 140400,
      "type": "SCALAR"
    },
    {
      "bufferView": 2,
      "byteOffset": 6098616,
      "componentType": 5126,
      "count": 34536,
      "max": [
        0.2652992904186249,
        0.09206407517194748,
        0.2948835492134094
      ],
      "min": [
        -0.2663353383541107,
        -0.09245826303958893,
        -0.2947719395160675
      ],
      "type": "VEC3"
    },
    {
      "bufferView": 2,
      "byteOffset": 6513048,
      "componentType": 5126,
      "count": 34536,
      "max": [
        0.9999666213989258,
        0.9999904632568359,
        0.9998775720596313
      ],
      "min": [
        -0.9999529123306274,
        -0.9999958276748657,
        -0.9999493360519409
      ],
      "type": "VEC3"
    },
    {
      "bufferView": 0,
      "byteOffset": 6098520,
      "componentType": 5125,
      "count": 207216,
      "type": "SCALAR"
    },
    {
      "bufferView": 2,
      "byteOffset": 6927480,
      "componentType": 5126,
      "count": 4,
      "max": [
        1.0,
        0.0,
        1.0
      ],
      "min": [
        -1.0,
        0.0,
        -1.0
      ],
      "type": "VEC3"
    },
    {
      "bufferView": 2,
      "byteOffset": 6927528,
      "componentType": 5126,
      "count": 4,
      "max": [
        0.0,
        1.0,
        -0.0
      ],
      "min": [
        0.0,
        1.0,
        -0.0
      ],
      "type": "VEC3"
    },
    {
      "bufferView": 1,
      "componentType": 5126,
      "count": 4,
      "max": [
        1.0,
        1.0
      ],
      "min": [
        0.0,
        0.0
      ],
      "type": "VEC2"
    },
    {
      "bufferView": 0,
      "byteOffset": 6927384,
      "componentType": 5125,
      "count": 6,
      "type": "SCALAR"
    }
  ],
  "asset": {
    "extras": {
      "author": "imaginibus (https://sketchfab.com/Iimaginibus)",
      "license": "CC-BY-4.0 (http://creativecommons.org/licenses/by/4.0/)",
      "source": "https://sketchfab.com/3d-models/birthday-balloons-numbers-16632cdfe1054f1bb2b4b9124417f093",
      "title": "Birthday Balloons numbers"
    },
    "generator": "Sketchfab-12.66.0",
    "version": "2.0"
  },
  "bufferViews": [
    {
      "buffer": 0,
      "byteLength": 6927408,
      "name": "floatBufferViews",
      "target": 34963
    },
    {
      "buffer": 0,
      "byteLength": 32,
      "byteOffset": 6927408,
      "byteStride": 8,
      "name": "floatBufferViews",
      "target": 34962
    },
    {
      "buffer": 0,
      "byteLength": 6927576,
      "byteOffset": 6927440,
      "byteStride": 12,
      "name": "floatBufferViews",
      "target": 34962
    }
  ],
  "buffers": [
    {
      "byteLength": 13855016,
      "uri": "scene.bin"
    }
  ],
  "materials": [
    {
      "doubleSided": true,
      "name": "Material.002",
      "pbrMetallicRoughness": {
        "roughnessFactor": 0.181818
      }
    },
    {
      "doubleSided": true,
      "name": "Material.001",
      "pbrMetallicRoughness": {
        "baseColorFactor": [
          0.0113221,
          0.0113221,
          0.0113221,
          1.0
        ],
        "metallicFactor": 0.0,
        "roughnessFactor": 0.627273
      }
    }
  ],
  "meshes": [
    {
      "name": "Object_0",
      "primitives": [
        {
          "attributes": {
            "NORMAL": 1,
            "POSITION": 0
          },
          "indices": 2,
          "material": 0,
          "mode": 4
        }
      ]
    },
    {
      "name": "Object_1",
      "primitives": [
        {
          "attributes": {
            "NORMAL": 4,
            "POSITION": 3
          },
          "indices": 5,
          "material": 0,
          "mode": 4
        }
      ]
    },
    {
      "name": "Object_2",
      "primitives": [
        {
          "attributes": {
            "NORMAL": 7,
            "POSITION": 6
          },
          "indices": 8,
          "material": 0,
          "mode": 4
        }
      ]
    },
    {
      "name": "Object_3",
      "primitives": [
        {
          "attributes": {
            "NORMAL": 10,
            "POSITION": 9
          },
          "indices": 11,
          "material": 0,
          "mode": 4
        }
      ]
    },
    {
      "name": "Object_4",
      "primitives": [
        {
          "attributes": {
            "NORMAL": 13,
            "POSITION": 12
          },
          "indices": 14,
          "material": 0,
          "mode": 4
        }
      ]
    },
    {
      "name": "Object_5",
      "primitives": [
        {
          "attributes": {
            "NORMAL": 16,
            "POSITION": 15
          },
          "indices": 17,
          "material": 0,
          "mode": 4
        }
      ]
    },
    {
      "name": "Object_6",
      "primitives": [
        {
          "attributes": {
            "NORMAL": 19,
            "POSITION": 18
          },
          "indices": 20,
          "material": 0,
          "mode": 4
        }
      ]
    },
    {
      "name": "Object_7",
      "primitives": [
        {
          "attributes": {
            "NORMAL": 22,
            "POSITION": 21
          },
          "indices": 23,
          "material": 0,
          "mode": 4
        }
      ]
    },
    {
      "name": "Object_8",
      "primitives": [
        {
          "attributes": {
            "NORMAL": 25,
            "POSITION": 24
          },
          "indices": 26,
          "material": 0,
          "mode": 4
        }
      ]
    },
    {
      "name": "Object_9",
      "primitives": [
        {
          "attributes": {
            "NORMAL": 28,
            "POSITION": 27
          },
          "indices": 29,
          "material": 0,
          "mode": 4
        }
      ]
    },
    {
      "name": "Object_10",
      "primitives": [
        {
          "attributes": {
            "NORMAL": 31,
            "POSITION": 30,
            "TEXCOORD_0": 32
          },
          "indices": 33,
          "material": 1,
          "mode": 4
        }
      ]
    }
  ],
  "nodes": [
    {
      "children": [
        1
      ],
      "matrix": [
        1.0,
        0.0,
        0.0,
        0.0,
        0.0,
        2.220446049250313e-16,
        -1.0,
        0.0,
        0.0,
        1.0,
        2.220446049250313e-16,
        0.0,
        0.0,
        0.0,
        0.0,
        1.0
      ],
      "name": "Sketchfab_model"
    },
    {
      "children": [
        2
      ],
      "name": "root"
    },
    {
      "children": [
        3,
        5,
        7,
        9,
        11,
        13,
        15,
        17,
        19,
        21,
        23
      ],
      "matrix": [
        1.0,
        0.0,
        0.0,
        0.0,
        0.0,
        2.220446049250313e-16,
        1.0,
        0.0,
        0.0,
        -1.0,
        2.220446049250313e-16,
        0.0,
        0.0,
        0.0,
        0.0,
        1.0
      ],
      "name": "GLTF_SceneRootNode"
    },
    {
      "children": [
        4
      ],
      "matrix": [
        -2.9802322387695313e-08,
        2.980232327587373e-08,
        -0.9999999999999991,
        0.0,
        0.9999999999999991,
        -2.9802322387695313e-08,
        -2.980232327587373e-08,
        0.0,
        -2.980232327587373e-08,
        -0.9999999999999991,
        -2.9802322387695313e-08,
        0.0,
        0.02608215995132923,
        0.46094152331352234,
        -0.5861048698425293,
        1.0
      ],
      "name": "Text_2"
    },
    {
      "mesh": 0,
      "name": "Object_4"
    },
    {
      "children": [
        6
      ],
      "matrix": [
        -2.9802322387695313e-08,
        2.980232327587373e-08,
        -0.9999999999999991,
        0.0,
        0.9999999999999991,
        -2.9802322387695313e-08,
        -2.980232327587373e-08,
        0.0,
        -2.980232327587373e-08,
        -0.9999999999999991,
        -2.9802322387695313e-08,
        0.0,
        0.02608215995132923,
        0.44011032581329346,
        -0.9896643161773682,
        1.0
      ],
      "name": "Text.001_3"
    },
    {
      "mesh": 1,
      "name": "Object_6"
    },
    {
      "children": [
        8
      ],
      "matrix": [
        -2.9802322387695313e-08,
        2.980232327587373e-08,
        -0.9999999999999991,
        0.0,
        0.9999999999999991,
        -2.9802322387695313e-08,
        -2.980232327587373e-08,
        0.0,
        -2.980232327587373e-08,
        -0.9999999999999991,
        -2.9802322387695313e-08,
        0.0,
        0.02608215995132923,
        0.434902548789978,
        -1.4896643161773682,
        1.0
      ],
      "name": "Text.002_4"
    },
    {
      "mesh": 2,
      "name": "Object_8"
    },
    {
      "children": [
        10
      ],
      "matrix": [
        -2.9802322387695313e-08,
        2.980232327587373e-08,
        -0.9999999999999991,
        0.0,
        0.9999999999999991,
        -2.9802322387695313e-08,
        -2.980232327587373e-08,
        0.0,
        -2.980232327587373e-08,
        -0.9999999999999991,
        -2.9802322387695313e-08,
        0.0,
        0.02608215995132923,
        0.4296947419643402,
        -2.0052876472473145,
        1.0
      ],
      "name": "Text.003_5"
    },
    {
      "mesh": 3,
      "name": "Object_10"
    },
    {
      "children": [
        12
      ],
      "matrix": [
        -2.9802322387695313e-08,
        2.980232327587373e-08,
        -0.9999999999999991,
        0.0,
        0.9999999999999991,
        -2.9802322387695313e-08,
        -2.980232327587373e-08,
        0.0,
        -2.980232327587373e-08,
        -0.9999999999999991,
        -2.9802322387695313e-08,
        0.0,
        0.02608215995132923,
        0.4505259394645691,
        -2.5052876472473145,
        1.0
      ],
      "name": "Text.004_6"
    },
    {
      "mesh": 4,
      "name": "Object_12"
    },
    {
      "children": [
        14
      ],
      "matrix": [
        -2.9802322387695313e-08,
        2.980232327587373e-08,
        -0.9999999999999991,
        0.0,
        0.9999999999999991,
        -2.9802322387695313e-08,
        -2.980232327587373e-08,
        0.0,
        -2.980232327587373e-08,
        -0.9999999999999991,
        -2.9802322387695313e-08,
        0.0,
        0.02608215995132923,
        0.46094152331352234,
        -3.0261189937591553,
        1.0
      ],
      "name": "Text.005_7"
    },
    {
      "mesh": 5,
      "name": "Object_14"
    },
    {
      "children": [
        16
      ],
      "matrix": [
        -2.9802322387695313e-08,
        2.980232327587373e-08,
        -0.9999999999999991,
        0.0,
        0.9999999999999991,
        -2.9802322387695313e-08,
        -2.980232327587373e-08,
        0.0,
        -2.980232327587373e-08,
        -0.9999999999999991,
        -2.9802322387695313e-08,
        0.0,
        0.02608215995132923,
        0.4973960816860199,
        -3.510495662689209,
        1.0
      ],
      "name": "Text.006_8"
    },
    {
      "mesh": 6,
      "name": "Object_16"
    },
    {
      "children": [
        18
      ],
      "matrix": [
        -2.9802322387695313e-08,
        2.980232327587373e-08,
        -0.9999999999999991,
        0.0,
        0.9999999999999991,
        -2.9802322387695313e-08,
        -2.980232327587373e-08,
        0.0,
        -2.980232327587373e-08,
        -0.9999999999999991,
        -2.9802322387695313e-08,
        0.0,
        0.02608215995132923,
        0.46094152331352234,
        -3.9896645545959473,
        1.0
      ],
      "name": "Text.007_9"
    },
    {
      "mesh": 7,
      "name": "Object_18"
    },
    {
      "children": [
        20
      ],
      "matrix": [
        -2.9802322387695313e-08,
        2.980232327587373e-08,
        -0.9999999999999991,
        0.0,
        0.9999999999999991,
        -2.9802322387695313e-08,
        -2.980232327587373e-08,
        0.0,
        -2.980232327587373e-08,
        -0.9999999999999991,
        -2.9802322387695313e-08,
        0.0,
        0.02608215995132923,
        0.46094152331352234,
        -4.4606170654296875,
        1.0
      ],
      "name": "Text.008_10"
    },
    {
      "mesh": 8,
      "name": "Object_20"
    },
    {
      "children": [
        22
      ],
      "matrix": [
        -2.9802322387695313e-08,
        2.980232327587373e-08,
        -0.9999999999999991,
        0.0,
        0.9999999999999991,
        -2.9802322387695313e-08,
        -2.980232327587373e-08,
        0.0,
        -2.980232327587373e-08,
        -0.9999999999999991,
        -2.9802322387695313e-08,
        0.0,
        0.02608215995132923,
        0.46094152331352234,
        -4.989664077758789,
        1.0
      ],
      "name": "Text.009_11"
    },
    {
      "mesh": 9,
      "name": "Object_22"
    },
    {
      "children": [
        24
      ],
      "matrix": [
        4.2146847401003384e-07,
        -4.999999999999983,
        -0.0,
        0.0,
        4.999999999999983,
        4.2146847401003384e-07,
        0.0,
        0.0,
        0.0,
        -0.0,
        5.0,
        0.0,
        -0.07372881472110748,
        -0.009741425514221191,
        -2.4187963008880615,
        1.0
      ],
      "name": "Plane_12"
    },
    {
      "mesh": 10,
      "name": "Object_24"
    }
  ],
  "scene": 0,
  "scenes": [
    {
      "name": "Sketchfab_Scene",
      "nodes": [
        0
      ]
    }
  ]
}
